<svg xmlns="http://www.w3.org/2000/svg" width="24" height="24" viewBox="0 0 24 24">
    <path fill="#787D86" fill-rule="evenodd" d="M12.5 1v2.015c4.104.254 7.37 3.6 7.496 7.736L20 11v4l1.451 3.629c.048.118.072.244.072.371 0 .513-.386.936-.883.993l-.117.007H15c0 1.657-1.343 3-3 3s-3-1.343-3-3H3.477c-.127 0-.253-.024-.371-.072-.477-.19-.726-.705-.595-1.189l.038-.11L4 15v-4l.004-.25C4.13 6.615 7.397 3.269 11.5 3.016L11.5 1h1zM14 20h-4c0 1.105.895 2 2 2s2-.895 2-2zM12 4c-3.785 0-6.881 3.009-6.996 6.766L5 11v4.193l-1.503 3.753-.02.055H9.17l.001-.003h1.097l-.001.003h3.466l-.001-.002h1.097V19h5.694L19 15.193v-4.178l-.003-.234C18.88 7.01 15.785 4 12 4z"/>
</svg>
