<svg xmlns="http://www.w3.org/2000/svg" width="20" height="20" viewBox="0 0 20 20">
    <g fill="none" fill-rule="evenodd">
        <g>
            <g>
                <g>
                    <g>
                        <g>
                            <g transform="translate(-320 -795) translate(318 95) translate(2 185) translate(0 401) translate(0 112) translate(0 2)">
                                <rect width="20" height="20" fill="#C6CBD3" rx="4"/>
                                <path fill="#FFF" fill-rule="nonzero" d="M10.5 3v.018C14.133 3.274 17 6.302 17 10c0 3.698-2.867 6.726-6.5 6.982V17h-1v-.018C5.869 16.726 3 13.698 3 10c0-3.698 2.868-6.726 6.5-6.982V3h1zm-1 10.51c-.615.024-1.223.094-1.82.207.465 1.135 1.123 1.927 1.82 2.189zm1 0v2.395c.697-.262 1.355-1.054 1.82-2.186-.597-.115-1.205-.185-1.82-.21zm-3.804.436l-.346.099c-.199.06-.396.126-.592.197.5.5 1.086.912 1.734 1.21-.306-.43-.574-.938-.796-1.506zm6.608-.002l-.059.15c-.21.509-.458.966-.737 1.36.648-.3 1.235-.712 1.734-1.21-.31-.114-.622-.213-.938-.3zM6.01 10.501H4.02c.09 1.084.468 2.086 1.057 2.93.429-.17.864-.315 1.306-.438-.207-.764-.337-1.605-.373-2.492zm9.97 0h-1.99c-.036.887-.166 1.728-.373 2.494.535.147 1.06.33 1.575.543l-.27-.107c.59-.844.968-1.846 1.057-2.93zM9.5 10.5H7.01c.037.816.16 1.58.346 2.262.704-.142 1.42-.226 2.144-.253V10.5zm3.49 0H10.5v2.01c.725.026 1.441.11 2.144.25.187-.68.31-1.444.345-2.26zm-8.97-1h1.99c.036-.887.166-1.729.373-2.495-.535-.147-1.06-.33-1.575-.543l.27.107c-.59.844-.968 1.847-1.057 2.931zm3.337-2.26l-.043.156c-.163.642-.27 1.35-.303 2.105L9.5 9.5V7.49c-.724-.026-1.44-.11-2.143-.25zm5.287-.002l-.424.079c-.566.094-1.14.152-1.72.174V9.5h2.49c-.037-.816-.159-1.58-.346-2.262zm2.279-.67l-.143.057c-.382.145-.77.272-1.163.382.207.764.337 1.606.373 2.493h1.99c-.09-1.084-.468-2.087-1.057-2.931zm-7.168-.464l-.076.18c.598.112 1.206.182 1.821.206V4.094c-.66.248-1.285.972-1.745 2.01zm2.746-2.01V6.49c.614-.024 1.222-.094 1.82-.207-.466-1.134-1.124-1.926-1.82-2.188zm-3.009.453l-.021.01c-.64.299-1.22.706-1.713 1.2.31.113.622.212.938.299.222-.57.49-1.079.796-1.51zm5.016 0l.057.081c.282.413.531.893.74 1.426.315-.085.628-.184.937-.296-.5-.5-1.086-.912-1.734-1.21z"/>
                            </g>
                        </g>
                    </g>
                </g>
            </g>
        </g>
    </g>
</svg>
