<svg xmlns="http://www.w3.org/2000/svg" width="24" height="24" viewBox="0 0 24 24">
    <g fill="none" fill-rule="evenodd">
        <g fill="#787D86">
            <g>
                <g>
                    <g>
                        <path d="M9.5 14c1.21 0 2.219.86 2.45 2H20v1h-8.05c-.232 1.141-1.24 2-2.45 2-1.21 0-2.218-.859-2.45-2H4v-1h3.05c.231-1.14 1.24-2 2.45-2zm0 1c-.828 0-1.5.672-1.5 1.5S8.672 18 9.5 18s1.5-.672 1.5-1.5-.672-1.5-1.5-1.5zm5-10c1.21 0 2.219.86 2.45 2H20v1h-3.05c-.232 1.141-1.24 2-2.45 2-1.21 0-2.218-.859-2.45-2H4V7h8.05c.231-1.14 1.24-2 2.45-2zm0 1c-.828 0-1.5.672-1.5 1.5S13.672 9 14.5 9 16 8.328 16 7.5 15.328 6 14.5 6z" transform="translate(-976 -216) translate(318 95) translate(2 113) translate(656 8)"/>
                    </g>
                </g>
            </g>
        </g>
    </g>
</svg>
