<svg xmlns="http://www.w3.org/2000/svg" width="24" height="24" viewBox="0 0 24 24">
    <path fill="#969AA2" fill-rule="evenodd" d="M6.354 5l12 12.277-.708.723-1.793-1.835-.131.066c-1.206.575-2.45.896-3.722.896-2.11 0-4.15-.885-6.065-2.357-.675-.519-1.294-1.08-1.85-1.655l-.336-.358c-.206-.226-.375-.424-.506-.587l-.093-.131c-.22-.363-.198-.835.068-1.176l.136-.17.186-.216.11-.125.257-.28C4.445 9.5 5.055 8.926 5.73 8.39c.412-.328.831-.629 1.256-.9l.241-.149-1.58-1.618L6.353 5zM7.96 8.091l.188-.106c-2.002 1.101-3.48 2.722-3.972 3.3L4 11.5l.177.215.227.26.213.232c1.208 1.29 4.059 3.897 7.383 3.897 1.098 0 2.144-.285 3.097-.712l-1-1.024c-.585.447-1.31.713-2.097.713-1.933 0-3.5-1.603-3.5-3.581 0-.804.26-1.547.697-2.144L7.96 8.09zM12 5.873c2.191 0 4.301.952 6.27 2.517.675.536 1.285 1.109 1.823 1.682l.256.28.21.239.087.103.136.169c.29.373.29.901 0 1.274l-.136.17-.186.216-.11.125-.257.28c-.538.573-1.148 1.146-1.823 1.682-.155.123-.31.242-.467.358l-.717-.735c1.367-.98 2.354-2.067 2.737-2.518L20 11.5l-.177-.215-.227-.26C18.54 9.85 15.539 6.896 12 6.896c-.632 0-1.246.094-1.836.256l-.806-.825c.865-.295 1.747-.454 2.642-.454zM9.5 11.5c0 1.413 1.12 2.558 2.5 2.558.51 0 .984-.156 1.379-.424l-3.464-3.545c-.262.404-.415.89-.415 1.411z"/>
</svg>
