<svg xmlns="http://www.w3.org/2000/svg" xmlns:xlink="http://www.w3.org/1999/xlink" width="36" height="36" viewBox="0 0 36 36">
    <defs>
        <path id="prefix__a" d="M0 0.177L20.852 0.177 20.852 20.045 0 20.045z"/>
    </defs>
    <g fill="none" fill-rule="evenodd">
        <circle cx="18" cy="18" r="18" fill="#00B900"/>
        <g>
            <g transform="translate(7.5 8) translate(0 .062)">
                <mask id="prefix__b" fill="#fff">
                    <use xlink:href="#prefix__a"/>
                </mask>
                <path fill="#FFF" d="M20.852 8.638c0-4.666-4.677-8.461-10.426-8.461C4.678.177 0 3.972 0 8.637c0 4.183 3.71 7.686 8.72 8.349.34.073.801.223.918.514.105.263.069.676.034.942l-.149.893c-.046.263-.21 1.03.903.562 1.113-.469 6.005-3.536 8.192-6.053 1.51-1.657 2.234-3.339 2.234-5.206" mask="url(#prefix__b)"/>
            </g>
            <path fill="#00B900" d="M8.308 6.445h-.732c-.112 0-.203.091-.203.203v4.543c0 .112.091.203.203.203h.732c.112 0 .203-.091.203-.203V6.648c0-.112-.091-.203-.203-.203M13.342 6.445h-.732c-.112 0-.203.091-.203.203v2.699l-2.082-2.812-.016-.02v-.002l-.013-.012-.004-.004-.01-.008-.006-.005-.01-.007-.007-.003-.01-.007c-.003 0-.005-.002-.007-.003l-.012-.005-.006-.002-.012-.004-.007-.002-.012-.002-.008-.001-.011-.002h-.749c-.112 0-.203.09-.203.202v4.543c0 .112.09.203.203.203h.731c.112 0 .203-.091.203-.203V8.493l2.085 2.815c.014.02.032.037.051.05.001 0 .002 0 .003.002l.012.007.006.003.01.005.01.004c.002 0 .004.002.005.003l.014.004h.003c.017.005.034.008.052.008h.732c.112 0 .203-.091.203-.203V6.648c0-.112-.091-.203-.203-.203M6.545 10.256H4.558V6.648c0-.112-.091-.203-.203-.203h-.732c-.112 0-.203.09-.203.203v4.543c0 .054.022.104.057.14l.003.003.003.003c.036.035.086.057.14.057h2.922c.112 0 .203-.091.203-.204v-.73c0-.113-.091-.204-.203-.204M17.38 7.583c.112 0 .203-.091.203-.203v-.732c0-.112-.09-.203-.203-.203H14.46c-.056 0-.105.022-.141.057l-.003.003-.003.003c-.035.036-.056.086-.056.14v4.542c0 .055.021.105.057.141l.002.003.003.003c.037.035.086.057.14.057h2.922c.112 0 .203-.091.203-.204v-.73c0-.113-.09-.204-.203-.204h-1.987v-.768h1.987c.112 0 .203-.09.203-.203v-.731c0-.112-.09-.204-.203-.204h-1.987v-.767h1.987z" transform="translate(7.5 8)"/>
        </g>
    </g>
</svg>
