<svg xmlns="http://www.w3.org/2000/svg" xmlns:xlink="http://www.w3.org/1999/xlink" width="32" height="32" viewBox="0 0 32 32">
    <defs>
        <path id="a" d="M0 0h32v32H0z"/>
        <linearGradient id="b" x1="13.161%" y1="100%" y2="0%">
            <stop offset="0%" stop-color="#00B1E2"/>
            <stop offset="100%" stop-color="#00D4B7"/>
        </linearGradient>
    </defs>
    <g fill="none" fill-rule="evenodd">
        <mask id="c" fill="#fff">
            <use xlink:href="#a"/>
        </mask>
        <path fill="url(#b)" d="M21.806 19.35l-5.255 2.362-.86 1.23a.134.134 0 0 1-.187.033l-5.236-3.667a.135.135 0 0 1-.033-.187l.868-1.224.422-5.745a.134.134 0 0 1 .21-.1l10.093 7.066c.085.06.073.19-.022.233m-7.446 4.384l-.797 1.14c-.04.047-.107.063-.163.063l-6.25.003a.134.134 0 0 1-.067-.204l2.868-4.089a.134.134 0 0 1 .187-.033l4.19 2.934c.06.042.074.126.032.186M31.847 5.221l-9.064 12.945a.182.182 0 0 1-.255.045l-10.18-7.128a.182.182 0 0 1-.044-.254L19.887 0H6.637A6.638 6.638 0 0 0 0 6.638v18.724A6.638 6.638 0 0 0 6.638 32h18.724A6.638 6.638 0 0 0 32 25.362V6.638c0-.487-.054-.96-.153-1.417" mask="url(#c)"/>
    </g>
</svg>
