<svg xmlns="http://www.w3.org/2000/svg" width="36" height="36" viewBox="0 0 36 36">
    <g fill="none" fill-rule="evenodd">
        <circle cx="18" cy="18" r="18" fill="#2867B2"/>
        <g fill="#FFF">
            <path d="M.264 16.346L3.664 16.346 3.664 5.428.264 5.428zM3.929 1.964c0 1.085-.88 1.965-1.965 1.965S0 3.049 0 1.964.88 0 1.964 0C3.05 0 3.93.88 3.93 1.964M16.394 16.346l-.006-6.412c-.006-.784-.136-1.542-.136-1.542-.187-1.35-.91-2.474-1.953-2.88-1.044-.408-2.456-.512-3.528-.062S9.046 6.941 9.046 6.941V5.428H5.804v10.918h3.399v-5.813S9.15 8.929 10.1 8.42c.95-.508 2.097-.363 2.557.45.267.474.336 1.128.35 1.536v5.939h3.388z" transform="translate(9.6 9.3)"/>
        </g>
    </g>
</svg>
