<svg xmlns="http://www.w3.org/2000/svg" width="24" height="24" viewBox="0 0 24 24">
    <g fill="none" fill-rule="evenodd">
        <g fill="#787D86">
            <g>
                <g>
                    <g>
                        <g>
                            <g>
                                <path d="M12 2.293v5.719l-.035.002C6.549 8.29 2 12.76 2 19.5v1.33l.876-1 .229-.257c2.507-2.76 4.776-3.517 8.62-3.57l.275-.002v5.706L21.707 12 12 2.293zm1 2.414L20.293 12 13 19.292V15h-.922l-.366.003c-3.614.05-6.003.71-8.384 2.919l-.263.25.027-.247C3.75 12.44 7.822 9 12.5 9h.5V4.707z" transform="translate(-912 -624) translate(318 95) translate(2 185) translate(0 344) translate(592)"/>
                            </g>
                        </g>
                    </g>
                </g>
            </g>
        </g>
    </g>
</svg>
