<svg xmlns="http://www.w3.org/2000/svg" width="36" height="36" viewBox="0 0 36 36">
    <g fill="none" fill-rule="evenodd">
        <circle cx="18" cy="18" r="18" fill="#1DA1F2"/>
        <path fill="#FFF" d="M24.69 15.844c0-.15 0-.298-.01-.446.675-.488 1.257-1.092 1.72-1.784-.63.279-1.296.462-1.98.542.72-.43 1.258-1.108 1.516-1.906-.677.401-1.417.684-2.19.836-1.304-1.388-3.488-1.455-4.876-.15-.895.843-1.275 2.097-.997 3.294-2.771-.139-5.353-1.448-7.104-3.601-.915 1.575-.447 3.59 1.067 4.601-.548-.016-1.085-.164-1.564-.431v.043c0 1.641 1.157 3.054 2.765 3.38-.507.138-1.04.158-1.556.058.451 1.404 1.746 2.366 3.22 2.394-1.22.96-2.728 1.48-4.28 1.478-.275 0-.549-.017-.821-.05 1.576 1.012 3.41 1.549 5.283 1.546 6.34.003 9.807-5.25 9.807-9.804z"/>
    </g>
</svg>
